<?xml version="1.0" encoding="utf-8"?>
<!-- Generator: Adobe Illustrator 16.0.0, SVG Export Plug-In . SVG Version: 6.00 Build 0)  -->
<!DOCTYPE svg PUBLIC "-//W3C//DTD SVG 1.1//EN" "http://www.w3.org/Graphics/SVG/1.1/DTD/svg11.dtd">
<svg version="1.1" id="Layer_1" xmlns="http://www.w3.org/2000/svg" xmlns:xlink="http://www.w3.org/1999/xlink" x="0px" y="0px"
	 width="149px" height="35px" viewBox="0 0 149 35" enable-background="new 0 0 149 35" xml:space="preserve">
<g>
	<path fill="#53C4DA" d="M32.703,0L0,8.725l8.262,4.77l1.245,7.374l4.622-3.984l6.702,3.869L32.703,0z M24.761,3.725L8.981,12.12
		L4.025,9.258L24.761,3.725z M9.822,13.429l15.515-8.254l-14.76,12.722L9.822,13.429z M15.375,15.811L28.188,4.767L20.26,18.631
		L15.375,15.811z"/>
	<g>
		<path fill="#414141" d="M37.1,28.754c-3.653,0-6.511-1.813-6.632-5.25h4.405c0.121,1.307,0.944,1.936,2.106,1.936
			c1.21,0,1.985-0.604,1.985-1.596c0-3.149-8.497-1.454-8.447-7.479c0-3.219,2.638-5.012,6.195-5.012
			c3.702,0,6.196,1.841,6.366,5.083H38.6c-0.071-1.089-0.845-1.742-1.959-1.767c-0.992-0.025-1.742,0.483-1.742,1.548
			c0,2.954,8.399,1.623,8.399,7.311C43.298,26.384,41.072,28.754,37.1,28.754z"/>
		<path fill="#414141" d="M51.434,28.779c-3.969,0-6.826-2.662-6.826-6.945c0-4.285,2.808-6.946,6.826-6.946
			c3.944,0,6.73,2.613,6.73,6.728c0,0.389-0.024,0.801-0.073,1.211h-9.366c0.145,1.765,1.233,2.591,2.565,2.591
			c1.161,0,1.815-0.581,2.153-1.309h4.402C57.194,26.748,54.797,28.779,51.434,28.779z M48.747,20.527h5.18
			c0-1.478-1.161-2.323-2.542-2.323C50.03,18.204,48.989,19.026,48.747,20.527z"/>
		<path fill="#414141" d="M69.317,21.254c0-1.841-1.018-2.858-2.59-2.858c-1.573,0-2.591,1.018-2.591,2.858v7.333h-4.138V15.08
			h4.138v1.792c0.825-1.139,2.276-1.937,4.091-1.937c3.124,0,5.205,2.129,5.205,5.759v7.893h-4.115V21.254z"/>
		<path fill="#414141" d="M81.116,14.888c1.792,0,3.341,0.822,4.164,2.058v-6.271h4.14v17.912h-4.14V26.65
			c-0.75,1.235-2.179,2.129-4.164,2.129c-3.315,0-5.954-2.71-5.954-6.971C75.162,17.549,77.801,14.888,81.116,14.888z
			 M82.327,18.493c-1.55,0-2.954,1.162-2.954,3.315c0,2.154,1.404,3.366,2.954,3.366c1.574,0,2.953-1.187,2.953-3.341
			S83.901,18.493,82.327,18.493z"/>
		<path fill="#414141" d="M101.328,15.08h4.478L97.334,35h-4.456l3.1-6.873L90.482,15.08h4.624l3.123,8.447L101.328,15.08z"/>
		<path fill="#53C4DA" d="M107.221,28.779c-1.477,0-2.47-0.991-2.47-2.226c0-1.283,0.993-2.276,2.47-2.276
			c1.451,0,2.443,0.993,2.443,2.276C109.664,27.788,108.672,28.779,107.221,28.779z"/>
	</g>
</g>
</svg>
