<svg width="100" height="100" viewBox="0 0 100 100" fill="none" xmlns="http://www.w3.org/2000/svg">
<rect width="100" height="100" fill="white"/>
<g clip-path="url(#clip0_1_11)">
<path d="M58.8953 31.705C58.859 36.5479 54.6129 40.7752 49.7918 40.7653C44.6866 40.7554 40.5463 36.515 40.5727 31.3198C40.5991 26.4803 44.8155 22.3748 49.7522 22.388C54.8144 22.4012 58.9317 26.5955 58.8953 31.705ZM42.6445 31.491C42.6346 35.4022 45.8002 38.6352 49.7092 38.7043C53.4762 38.7702 56.8664 35.3693 56.84 31.5437C56.8136 27.5897 53.6348 24.4654 49.6729 24.5016C45.7506 24.5378 42.6544 27.6161 42.6445 31.491Z" fill="black"/>
<path d="M86.1826 33.8318C85.948 33.6014 85.6903 33.394 85.4425 33.1767C82.9675 31.0202 80.4959 28.8605 78.0143 26.7107C77.0065 25.835 76.0019 24.9592 74.9875 24.0901C74.3035 23.5041 74.0094 22.9016 74.0259 21.9896C74.0821 18.918 74.0887 15.8463 74.0259 12.7747C73.9731 9.94334 72.0466 7.88569 69.2214 7.65852C67.9129 7.55317 66.5779 7.58938 65.2661 7.7079C63.4983 7.86922 62.2063 8.84373 61.3439 10.3779C61.139 10.7433 60.944 11.1121 60.7094 11.5434C60.1972 11.1154 59.771 10.773 59.3579 10.4141C56.9094 8.28734 54.4774 6.1408 52.0124 4.03706C50.3833 2.64773 49.2334 2.66419 47.6242 4.00743C47.4127 4.18192 47.2079 4.36628 46.9997 4.54736C42.552 8.42232 38.1044 12.3006 33.6567 16.1755C25.3892 23.3526 16.2296 31.31 14.8484 32.5116C14.6006 32.7289 14.3428 32.9363 14.1082 33.1668C13.216 34.0392 12.7799 35.0565 13.2458 36.2878C13.7249 37.5586 14.6766 38.1907 16.0379 38.1973C17.6901 38.2072 19.3423 38.1973 20.9912 38.2072C21.4736 38.2072 21.956 38.2467 22.5343 38.2731C22.5772 38.2731 22.5806 61.0389 22.5475 65.2233H24.6788C24.6788 60.9599 24.6788 39.9488 24.6788 38.3521C24.6788 36.2516 24.5731 36.1496 22.412 36.1463C20.3732 36.143 18.3378 36.1693 16.3023 36.1199C15.9223 36.11 15.344 35.8862 15.2383 35.6129C15.1326 35.3462 15.4696 34.859 15.6943 34.5265C15.8727 34.2631 16.1767 34.082 16.4246 33.868C17.7397 32.719 23.2381 27.9255 29.2355 22.7041C30.9273 21.2621 32.6192 19.8201 34.1788 18.4604C38.9007 14.3418 43.6226 10.2232 48.3512 6.10788C49.8183 4.83049 49.8249 4.83707 51.3317 6.15397C54.2726 8.72191 57.2101 11.2866 60.1543 13.8512C60.4847 14.1409 60.7986 14.4669 61.1786 14.6809C61.9254 15.099 62.6127 14.7566 62.7713 13.9105C62.8308 13.5911 62.7879 13.2553 62.8044 12.9261C62.9035 10.9047 63.9807 9.82152 66.0261 9.72934C66.9051 9.68983 67.7873 9.69313 68.6696 9.72934C70.8637 9.80835 71.9706 10.9277 71.9971 13.1631C72.0301 16.1262 72.116 19.0925 71.964 22.0489C71.8814 23.672 72.4795 24.6728 73.6658 25.6704C74.0788 26.016 74.4852 26.3683 74.895 26.7173C77.9185 29.2885 80.8825 31.9289 83.8729 34.5364C84.1207 34.7536 84.4247 34.9314 84.6032 35.1948C84.8279 35.5273 85.1649 36.0146 85.0592 36.2812C84.9534 36.5545 84.3719 36.7817 83.9952 36.7883C81.9597 36.8376 79.9209 36.8113 77.8854 36.8146C75.7244 36.8179 75.6186 36.9199 75.6186 39.0204C75.6186 40.5776 75.6186 60.3508 75.6186 65.2332H77.7599V38.9414C78.3381 38.915 78.8206 38.8788 79.303 38.8755C80.9552 38.8657 82.6073 38.8755 84.2562 38.8657C85.6143 38.8591 86.5692 38.227 87.0484 36.9562C87.5143 35.7249 87.0781 34.7076 86.1859 33.8351L86.1826 33.8318Z" fill="black"/>
<path d="M45.1723 54.0626H55.7562V65.5591H58.0163C57.9899 65.1311 57.9668 64.7361 57.9635 64.341C57.9569 61.2134 57.9701 58.0857 57.9569 54.9614C57.9469 52.6766 57.1671 51.893 54.897 51.8832C51.9231 51.87 48.9492 51.8667 45.9786 51.8832C43.8374 51.8963 43.0113 52.7391 43.0014 54.8988C42.9882 57.9705 42.9981 61.0422 42.9981 64.1138C42.9981 64.5747 42.9981 65.0389 42.9981 65.5558H45.1723V54.0593V54.0626Z" fill="black"/>
<path d="M86.6485 65.2299H13.3515C12.6047 65.2299 12 65.8324 12 66.5764V67.1723C12 67.9164 12.6047 68.5188 13.3515 68.5188H13.4143C13.2755 68.7954 13.2226 69.118 13.2028 69.4505C13.1863 69.7238 13.1565 69.9971 13.1037 70.267C12.3271 74.0893 12.456 77.9017 13.2424 81.7043C14.0454 85.6023 15.3969 89.2896 17.4687 92.7069C17.8784 93.3818 18.265 94.0074 19.2068 93.9909C21.3546 93.958 23.5024 94.0304 25.647 93.9415C27.2826 93.8724 28.0063 93.0789 28.1913 91.4789C28.2409 91.0608 28.2871 90.6427 28.3499 90.0962C29.0273 90.3036 29.5957 90.4715 30.1574 90.6558C35.7054 92.4435 41.2732 94.172 46.7915 96.0452C51.8141 97.7506 56.6087 97.0856 61.172 94.7448C67.7741 91.3571 74.2903 87.8048 80.8097 84.259C81.7515 83.7487 82.637 83.0014 83.3177 82.175C84.8245 80.3446 83.9522 77.8918 81.6722 77.2334C80.3901 76.8647 79.1609 77.1182 77.9515 77.533C74.5183 78.7116 71.0884 79.9034 67.6584 81.0853C67.1 81.2796 66.535 81.4573 65.8972 81.6647C65.7981 81.3388 65.7287 81.1413 65.6791 80.9405C64.9786 77.9807 63.6271 76.8976 60.5904 76.8877C57.7817 76.8778 54.973 76.8614 52.1677 76.9009C51.2887 76.914 50.608 76.6737 49.9405 76.0844C48.0273 74.3955 45.8101 73.1938 43.421 72.2885C39.1287 70.6621 34.6711 70.1913 30.1177 70.3493C29.5263 70.3691 28.9315 70.3493 28.3499 70.3493C28.112 69.737 27.9038 69.2003 27.6395 68.5188H86.6518C87.3986 68.5188 88.0033 67.9164 88.0033 67.1723V66.5764C88.0033 65.8324 87.3986 65.2299 86.6518 65.2299H86.6485ZM28.1946 73.5197C28.188 72.5452 28.4821 72.1469 29.4833 72.1041C34.0929 71.9098 38.6033 72.3477 42.9485 74.0004C45.2318 74.8696 47.34 76.0449 49.1177 77.7239C49.8612 78.4285 50.6477 78.6491 51.6423 78.6326C54.6129 78.5832 57.5868 78.603 60.5574 78.6227C61.0993 78.626 61.6743 78.6523 62.1765 78.8301C63.3397 79.2417 63.9807 80.3479 63.8617 81.5528C63.7494 82.7183 62.8572 83.6862 61.6511 83.8804C61.1654 83.9594 60.6631 83.9364 60.1708 83.9364C55.657 83.9397 51.1466 83.9364 46.6329 83.9364C46.4677 83.9364 46.3024 83.9199 46.1372 83.9364C45.3838 84.0187 44.1976 83.6203 44.2405 84.8516C44.2835 86.0335 45.4631 85.6846 46.2165 85.6977C48.6386 85.7372 51.0574 85.7142 53.4795 85.7142C55.8454 85.7142 58.2113 85.701 60.5772 85.7142C62.0642 85.7241 63.3958 85.4014 64.4929 84.3084C64.8233 83.9759 65.3124 83.7586 65.765 83.6006C70.021 82.1158 74.277 80.6343 78.5562 79.212C79.3162 78.9585 80.1885 78.8433 80.9783 78.9355C82.2967 79.0902 82.7263 80.226 81.8374 81.1907C81.2195 81.8656 80.4496 82.4582 79.6433 82.8927C73.2593 86.3364 66.8885 89.8065 60.4384 93.1184C56.2915 95.2485 51.9364 95.9169 47.3499 94.3629C41.4153 92.3514 35.441 90.4583 29.4734 88.5554C28.5548 88.2624 28.1517 87.8706 28.1682 86.8369C28.2343 82.3956 28.231 77.9544 28.1913 73.5132L28.1946 73.5197ZM26.4466 70.9419C26.4797 74.2803 26.4565 77.6219 26.4565 80.9635C26.4565 84.1405 26.4631 87.3142 26.4532 90.4912C26.4466 92.0979 26.3805 92.167 24.7845 92.1933C23.3009 92.2164 21.8172 92.1604 20.3369 92.2131C19.5207 92.2427 18.9953 91.9497 18.6153 91.2419C15.7207 85.8821 14.1082 80.2129 14.4419 74.0794C14.5047 72.9337 14.5609 71.7782 14.7327 70.6456C14.921 69.4077 15.3209 68.7855 16.1932 68.5254H24.7746C26.0038 68.7197 26.4301 69.3748 26.4466 70.9452V70.9419Z" fill="#D62020"/>
</g>
<defs>
<clipPath id="clip0_1_11">
<rect width="76" height="94" fill="white" transform="translate(12 3)"/>
</clipPath>
</defs>
</svg>
