<svg width="25" height="25" viewBox="0 0 25 25" fill="none" xmlns="http://www.w3.org/2000/svg">
<rect width="25" height="25" fill="white"/>
<g clip-path="url(#clip0_1_10)">
<path d="M14.7238 8.17625C14.7147 9.38697 13.6532 10.4438 12.4479 10.4413C11.1716 10.4388 10.1366 9.37874 10.1432 8.07995C10.1498 6.87006 11.2039 5.8437 12.438 5.84699C13.7036 5.85029 14.7329 6.89886 14.7238 8.17625ZM10.6611 8.12275C10.6586 9.10055 11.45 9.90879 12.4273 9.92608C13.369 9.94254 14.2166 9.09232 14.21 8.13592C14.2034 7.14743 13.4087 6.36634 12.4182 6.3754C11.4376 6.38445 10.6636 7.15401 10.6611 8.12275Z" fill="black"/>
<path d="M21.5456 8.70796C21.487 8.65035 21.4225 8.5985 21.3606 8.54417C20.7418 8.00507 20.1239 7.46514 19.5035 6.92768C19.2516 6.70875 19.0005 6.48982 18.7468 6.27253C18.5758 6.12602 18.5023 5.9754 18.5065 5.74742C18.5205 4.9795 18.5222 4.21159 18.5065 3.44367C18.4932 2.73584 18.0116 2.22143 17.3053 2.16464C16.9782 2.1383 16.6445 2.14735 16.3165 2.17698C15.8745 2.21731 15.5515 2.46094 15.3359 2.84449C15.2847 2.93585 15.236 3.02803 15.1773 3.13585C15.0493 3.02885 14.9427 2.94325 14.8395 2.85354C14.2273 2.32184 13.6193 1.78521 13.0031 1.25927C12.5958 0.911941 12.3083 0.916056 11.906 1.25186C11.8532 1.29549 11.8019 1.34158 11.7499 1.38685C10.638 2.35559 9.52606 3.32515 8.41415 4.29389C6.34728 6.08816 4.05737 8.0775 3.71206 8.37792C3.65011 8.43224 3.58567 8.48409 3.52702 8.5417C3.30398 8.75982 3.19493 9.01414 3.31141 9.32197C3.43119 9.63967 3.66911 9.79769 4.00946 9.79934C4.4225 9.80181 4.83554 9.79934 5.24776 9.80181C5.36837 9.80181 5.48898 9.81169 5.63354 9.81827C5.64428 9.81827 5.64511 15.5097 5.63685 16.5558H6.16967C6.16967 15.49 6.16967 10.2372 6.16967 9.83802C6.16967 9.31291 6.14324 9.2874 5.60298 9.28657C5.09328 9.28575 4.58441 9.29234 4.07554 9.27999C3.98054 9.27752 3.83598 9.22155 3.80954 9.15324C3.78311 9.08657 3.86737 8.96476 3.92354 8.88163C3.96815 8.81578 4.04415 8.77052 4.10611 8.71702C4.43489 8.42977 5.8095 7.23139 7.30885 5.92602C7.7318 5.56552 8.15476 5.20502 8.54467 4.8651C9.72515 3.83545 10.9056 2.8058 12.0878 1.77698C12.4545 1.45763 12.4562 1.45928 12.8329 1.7885C13.5681 2.43049 14.3025 3.07165 15.0385 3.71281C15.1212 3.78524 15.1996 3.86673 15.2946 3.92022C15.4813 4.02475 15.6532 3.93915 15.6928 3.72763C15.7077 3.64779 15.6969 3.56384 15.7011 3.48153C15.7258 2.97617 15.9952 2.70539 16.5065 2.68234C16.7262 2.67247 16.9468 2.67329 17.1674 2.68234C17.7159 2.7021 17.9926 2.98194 17.9992 3.54079C18.0075 4.28155 18.029 5.02312 17.991 5.76223C17.9703 6.168 18.1198 6.41821 18.4164 6.6676C18.5197 6.75402 18.6213 6.84209 18.7237 6.92933C19.4796 7.57214 20.2206 8.23223 20.9682 8.8841C21.0302 8.93842 21.1062 8.98286 21.1508 9.04871C21.2069 9.13184 21.2912 9.25365 21.2648 9.32032C21.2383 9.38863 21.0929 9.44542 20.9988 9.44707C20.4899 9.45942 19.9802 9.45283 19.4713 9.45365C18.9311 9.45448 18.9046 9.47999 18.9046 10.0051C18.9046 10.3944 18.9046 15.3377 18.9046 16.5583H19.4399V9.98535C19.5845 9.97877 19.7051 9.96971 19.8257 9.96889C20.2388 9.96642 20.6518 9.96889 21.064 9.96642C21.4035 9.96478 21.6423 9.80675 21.7621 9.48905C21.8785 9.18122 21.7695 8.9269 21.5465 8.70879L21.5456 8.70796Z" fill="black"/>
<path d="M11.2931 13.7657H13.9391V16.6398H14.5041C14.4975 16.5328 14.4917 16.434 14.4909 16.3353C14.4892 15.5534 14.4925 14.7714 14.4892 13.9904C14.4868 13.4192 14.2918 13.2233 13.7243 13.2208C12.9808 13.2175 12.2373 13.2167 11.4947 13.2208C10.9594 13.2241 10.7529 13.4348 10.7504 13.9747C10.7471 14.7426 10.7495 15.5106 10.7495 16.2785C10.7495 16.3937 10.7495 16.5098 10.7495 16.639H11.2931V13.7648V13.7657Z" fill="black"/>
<path d="M21.6621 16.5575H3.33787C3.15117 16.5575 3 16.7081 3 16.8941V17.0431C3 17.2291 3.15117 17.3797 3.33787 17.3797H3.35357C3.31887 17.4488 3.30565 17.5295 3.3007 17.6126C3.29657 17.6809 3.28913 17.7493 3.27591 17.8167C3.08178 18.7723 3.114 19.7254 3.31061 20.6761C3.51135 21.6506 3.84922 22.5724 4.36717 23.4267C4.46961 23.5954 4.56626 23.7518 4.8017 23.7477C5.33865 23.7395 5.87561 23.7576 6.41174 23.7354C6.82065 23.7181 7.00157 23.5197 7.04783 23.1197C7.06022 23.0152 7.07178 22.9107 7.08748 22.774C7.25683 22.8259 7.39891 22.8679 7.53935 22.914C8.92635 23.3609 10.3183 23.793 11.6979 24.2613C12.9535 24.6876 14.1522 24.5214 15.293 23.9362C16.9435 23.0893 18.5726 22.2012 20.2024 21.3148C20.4379 21.1872 20.6593 21.0003 20.8294 20.7938C21.2061 20.3361 20.988 19.723 20.418 19.5583C20.0975 19.4662 19.7902 19.5295 19.4879 19.6332C18.6296 19.9279 17.7721 20.2258 16.9146 20.5213C16.775 20.5699 16.6337 20.6143 16.4743 20.6662C16.4495 20.5847 16.4322 20.5353 16.4198 20.4851C16.2447 19.7452 15.9068 19.4744 15.1476 19.4719C14.4454 19.4694 13.7433 19.4653 13.0419 19.4752C12.8222 19.4785 12.652 19.4184 12.4851 19.2711C12.0068 18.8489 11.4525 18.5484 10.8553 18.3221C9.78217 17.9155 8.66778 17.7978 7.52944 17.8373C7.38157 17.8423 7.23287 17.8373 7.08748 17.8373C7.028 17.6842 6.97596 17.5501 6.90987 17.3797H21.663C21.8497 17.3797 22.0008 17.2291 22.0008 17.0431V16.8941C22.0008 16.7081 21.8497 16.5575 21.663 16.5575H21.6621ZM7.04865 18.6299C7.047 18.3863 7.12052 18.2867 7.37083 18.276C8.52322 18.2275 9.65083 18.3369 10.7371 18.7501C11.308 18.9674 11.835 19.2612 12.2794 19.681C12.4653 19.8571 12.6619 19.9123 12.9106 19.9081C13.6532 19.8958 14.3967 19.9007 15.1393 19.9057C15.2748 19.9065 15.4186 19.9131 15.5441 19.9575C15.8349 20.0604 15.9952 20.337 15.9654 20.6382C15.9373 20.9296 15.7143 21.1715 15.4128 21.2201C15.2913 21.2399 15.1658 21.2341 15.0427 21.2341C13.9143 21.2349 12.7867 21.2341 11.6582 21.2341C11.6169 21.2341 11.5756 21.23 11.5343 21.2341C11.346 21.2547 11.0494 21.1551 11.0601 21.4629C11.0709 21.7584 11.3658 21.6711 11.5541 21.6744C12.1597 21.6843 12.7643 21.6785 13.3699 21.6785C13.9613 21.6785 14.5528 21.6753 15.1443 21.6785C15.516 21.681 15.849 21.6004 16.1232 21.3271C16.2058 21.244 16.3281 21.1896 16.4413 21.1501C17.5053 20.7789 18.5693 20.4086 19.639 20.053C19.829 19.9896 20.0471 19.9608 20.2446 19.9839C20.5742 20.0225 20.6816 20.3065 20.4593 20.5477C20.3049 20.7164 20.1124 20.8645 19.9108 20.9732C18.3148 21.8341 16.7221 22.7016 15.1096 23.5296C14.0729 24.0621 12.9841 24.2292 11.8375 23.8407C10.3538 23.3378 8.86026 22.8646 7.36835 22.3888C7.1387 22.3156 7.03791 22.2176 7.04204 21.9592C7.05857 20.8489 7.05774 19.7386 7.04783 18.6283L7.04865 18.6299ZM6.61165 17.9855C6.61991 18.8201 6.61413 19.6555 6.61413 20.4909C6.61413 21.2851 6.61578 22.0785 6.6133 22.8728C6.61165 23.2745 6.59513 23.2917 6.19613 23.2983C5.82522 23.3041 5.4543 23.2901 5.08422 23.3033C4.88017 23.3107 4.74883 23.2374 4.65383 23.0605C3.93017 21.7205 3.52704 20.3032 3.61048 18.7698C3.62617 18.4834 3.64022 18.1945 3.68317 17.9114C3.73026 17.6019 3.83022 17.4464 4.0483 17.3813H6.19365C6.50096 17.4299 6.60752 17.5937 6.61165 17.9863V17.9855Z" fill="#D62020"/>
</g>
<defs>
<clipPath id="clip0_1_10">
<rect width="19" height="23.5" fill="white" transform="translate(3 1)"/>
</clipPath>
</defs>
</svg>
