<svg width="50" height="50" viewBox="0 0 50 50" fill="none" xmlns="http://www.w3.org/2000/svg">
<rect width="50" height="50" fill="white"/>
<g clip-path="url(#clip0_1_9)">
<path d="M29.4476 16.3525C29.4294 18.7739 27.3064 20.8876 24.8959 20.8826C22.3433 20.8777 20.2731 18.7575 20.2863 16.1599C20.2995 13.7401 22.4077 11.6874 24.8761 11.694C27.4072 11.7006 29.4658 13.7977 29.4476 16.3525ZM21.3222 16.2455C21.3173 18.2011 22.9001 19.8176 24.8546 19.8522C26.7381 19.8851 28.4332 18.1846 28.42 16.2718C28.4068 14.2949 26.8174 12.7327 24.8364 12.7508C22.8753 12.7689 21.3272 14.308 21.3222 16.2455Z" fill="black"/>
<path d="M43.0913 17.4159C42.974 17.3007 42.8451 17.197 42.7212 17.0883C41.4838 16.0101 40.2479 14.9303 39.0071 13.8554C38.5032 13.4175 38.001 12.9796 37.4938 12.545C37.1518 12.252 37.0047 11.9508 37.013 11.4948C37.0411 9.95899 37.0444 8.42316 37.013 6.88733C36.9865 5.47167 36.0233 4.44284 34.6107 4.32926C33.9564 4.27658 33.289 4.29469 32.6331 4.35395C31.7491 4.43461 31.1031 4.92186 30.6719 5.68896C30.5695 5.87167 30.472 6.05604 30.3547 6.27168C30.0986 6.05769 29.8855 5.88649 29.679 5.70706C28.4547 4.64367 27.2387 3.5704 26.0062 2.51853C25.1917 1.82387 24.6167 1.8321 23.8121 2.50371C23.7064 2.59096 23.6039 2.68314 23.4998 2.77368C21.276 4.71116 19.0522 6.65029 16.8284 8.58777C12.6946 12.1763 8.1148 16.155 7.42419 16.7558C7.30028 16.8645 7.17141 16.9682 7.0541 17.0834C6.60801 17.5196 6.38993 18.0283 6.62288 18.6439C6.86245 19.2793 7.33828 19.5954 8.01897 19.5987C8.84506 19.6036 9.67115 19.5987 10.4956 19.6036C10.7368 19.6036 10.978 19.6234 11.2671 19.6365C11.2886 19.6365 11.2903 31.0194 11.2738 33.1117H12.3394C12.3394 30.9799 12.3394 20.4744 12.3394 19.676C12.3394 18.6258 12.2865 18.5748 11.206 18.5731C10.1866 18.5715 9.16888 18.5847 8.15115 18.56C7.96115 18.555 7.67202 18.4431 7.61915 18.3065C7.56628 18.1731 7.7348 17.9295 7.84715 17.7632C7.93636 17.6316 8.08836 17.541 8.21228 17.434C8.86984 16.8595 11.6191 14.4628 14.6178 11.852C15.4637 11.131 16.3096 10.41 17.0894 9.73018C19.4504 7.67088 21.8113 5.61159 24.1756 3.55394C24.9091 2.91524 24.9125 2.91854 25.6658 3.57698C27.1363 4.86096 28.6051 6.14328 30.0771 7.42561C30.2424 7.57047 30.3993 7.73344 30.5893 7.84043C30.9627 8.04949 31.3064 7.87829 31.3857 7.45524C31.4154 7.29557 31.3939 7.12766 31.4022 6.96305C31.4518 5.95233 31.9904 5.41076 33.0131 5.36467C33.4525 5.34492 33.8937 5.34656 34.3348 5.36467C35.4318 5.40418 35.9853 5.96386 35.9985 7.08157C36.0151 8.56308 36.058 10.0462 35.982 11.5244C35.9407 12.336 36.2398 12.8364 36.8329 13.3352C37.0394 13.508 37.2426 13.6842 37.4475 13.8586C38.9592 15.1443 40.4412 16.4645 41.9364 17.7682C42.0604 17.8768 42.2124 17.9657 42.3016 18.0974C42.4139 18.2637 42.5825 18.5073 42.5296 18.6406C42.4767 18.7773 42.1859 18.8908 41.9976 18.8941C40.9798 18.9188 39.9605 18.9056 38.9427 18.9073C37.8622 18.9089 37.8093 18.96 37.8093 20.0102C37.8093 20.7888 37.8093 30.6754 37.8093 33.1166H38.8799V19.9707C39.1691 19.9575 39.4103 19.9394 39.6515 19.9378C40.4776 19.9328 41.3037 19.9378 42.1281 19.9328C42.8071 19.9295 43.2846 19.6135 43.5242 18.9781C43.7571 18.3624 43.5391 17.8538 43.093 17.4176L43.0913 17.4159Z" fill="black"/>
<path d="M22.5862 27.5313H27.8781V33.2796H29.0082C28.995 33.0656 28.9834 32.868 28.9817 32.6705C28.9784 31.1067 28.985 29.5429 28.9784 27.9807C28.9735 26.8383 28.5836 26.4465 27.4485 26.4416C25.9616 26.435 24.4746 26.4333 22.9893 26.4416C21.9187 26.4482 21.5056 26.8696 21.5007 27.9494C21.4941 29.4853 21.499 31.0211 21.499 32.5569C21.499 32.7874 21.499 33.0195 21.499 33.2779H22.5862V27.5297V27.5313Z" fill="black"/>
<path d="M43.3243 33.1149H6.67574C6.30235 33.1149 6 33.4162 6 33.7882V34.0861C6 34.4582 6.30235 34.7594 6.67574 34.7594H6.70713C6.63774 34.8977 6.6113 35.059 6.60139 35.2253C6.59313 35.3619 6.57826 35.4985 6.55183 35.6335C6.16357 37.5446 6.228 39.4508 6.62122 41.3521C7.0227 43.3011 7.69843 45.1448 8.73435 46.8534C8.93922 47.1909 9.13252 47.5037 9.60339 47.4954C10.6773 47.479 11.7512 47.5152 12.8235 47.4707C13.6413 47.4362 14.0031 47.0395 14.0957 46.2394C14.1204 46.0304 14.1436 45.8213 14.175 45.5481C14.5137 45.6518 14.7978 45.7357 15.0787 45.8279C17.8527 46.7218 20.6366 47.586 23.3957 48.5226C25.907 49.3753 28.3043 49.0428 30.586 47.8724C33.887 46.1785 37.1451 44.4024 40.4049 42.6295C40.8757 42.3744 41.3185 42.0007 41.6589 41.5875C42.4123 40.6723 41.9761 39.4459 40.8361 39.1167C40.195 38.9323 39.5804 39.0591 38.9757 39.2665C37.2591 39.8558 35.5442 40.4517 33.8292 41.0426C33.55 41.1398 33.2675 41.2287 32.9486 41.3324C32.899 41.1694 32.8643 41.0706 32.8396 40.9702C32.4893 39.4904 31.8136 38.9488 30.2952 38.9438C28.8909 38.9389 27.4865 38.9307 26.0838 38.9504C25.6443 38.957 25.304 38.8368 24.9703 38.5422C24.0137 37.6977 22.905 37.0969 21.7105 36.6442C19.5643 35.831 17.3356 35.5956 15.0589 35.6746C14.7631 35.6845 14.4657 35.6746 14.175 35.6746C14.056 35.3685 13.9519 35.1001 13.8197 34.7594H43.3259C43.6993 34.7594 44.0017 34.4582 44.0017 34.0861V33.7882C44.0017 33.4162 43.6993 33.1149 43.3259 33.1149H43.3243ZM14.0973 37.2599C14.094 36.7726 14.241 36.5734 14.7417 36.552C17.0464 36.4549 19.3017 36.6738 21.4743 37.5002C22.6159 37.9348 23.67 38.5224 24.5589 39.362C24.9306 39.7142 25.3238 39.8245 25.8211 39.8163C27.3064 39.7916 28.7934 39.8015 30.2787 39.8113C30.5497 39.813 30.8371 39.8262 31.0883 39.915C31.6698 40.1208 31.9903 40.6739 31.9309 41.2764C31.8747 41.8591 31.4286 42.3431 30.8256 42.4402C30.5827 42.4797 30.3316 42.4682 30.0854 42.4682C27.8285 42.4698 25.5733 42.4682 23.3164 42.4682C23.2338 42.4682 23.1512 42.4599 23.0686 42.4682C22.6919 42.5093 22.0988 42.3102 22.1203 42.9258C22.1417 43.5168 22.7316 43.3423 23.1083 43.3489C24.3193 43.3686 25.5287 43.3571 26.7397 43.3571C27.9227 43.3571 29.1057 43.3505 30.2886 43.3571C31.0321 43.362 31.6979 43.2007 32.2464 42.6542C32.4117 42.4879 32.6562 42.3793 32.8825 42.3003C35.0105 41.5579 37.1385 40.8171 39.2781 40.106C39.6581 39.9792 40.0943 39.9216 40.4891 39.9677C41.1483 40.0451 41.3631 40.613 40.9187 41.0953C40.6097 41.4328 40.2248 41.7291 39.8217 41.9464C36.6297 43.6682 33.4443 45.4032 30.2192 47.0592C28.1457 48.1242 25.9682 48.4584 23.675 47.6814C20.7077 46.6757 17.7205 45.7291 14.7367 44.7777C14.2774 44.6312 14.0758 44.4353 14.0841 43.9184C14.1171 41.6978 14.1155 39.4772 14.0957 37.2566L14.0973 37.2599ZM13.2233 35.9709C13.2398 37.6401 13.2283 39.3109 13.2283 40.9817C13.2283 42.5702 13.2316 44.1571 13.2266 45.7456C13.2233 46.5489 13.1903 46.5835 12.3923 46.5966C11.6504 46.6082 10.9086 46.5802 10.1684 46.6065C9.76035 46.6213 9.49765 46.4748 9.30765 46.1209C7.86035 43.441 7.05409 40.6064 7.22096 37.5397C7.25235 36.9668 7.28043 36.3891 7.36635 35.8228C7.46052 35.2039 7.66043 34.8927 8.09661 34.7627H12.3873C13.0019 34.8598 13.215 35.1874 13.2233 35.9726V35.9709Z" fill="#D62020"/>
</g>
<defs>
<clipPath id="clip0_1_9">
<rect width="38" height="47" fill="white" transform="translate(6 2)"/>
</clipPath>
</defs>
</svg>
